<svg width="48" height="49" viewBox="0 0 48 49" fill="none" xmlns="http://www.w3.org/2000/svg">
<circle cx="24" cy="24.3574" r="24" fill="#FEF4E8"/>
<g clip-path="url(#clip0)">
<path d="M24 12.3574C17.3726 12.3574 12 17.73 12 24.3574C12 30.9848 17.3726 36.3574 24 36.3574C30.6274 36.3574 36 30.9848 36 24.3574C36 17.73 30.6274 12.3574 24 12.3574ZM19.6875 17.124C19.9347 17.1094 20.1582 17.2572 20.3276 17.5195L21.9683 20.6308C22.141 20.9995 22.0428 21.3943 21.7852 21.6577L21.0337 22.4092C20.9873 22.4727 20.9568 22.5443 20.9561 22.623C21.2442 23.7385 22.1184 24.7675 22.8897 25.4751C23.6609 26.1827 24.4899 27.1407 25.5659 27.3677C25.6989 27.4048 25.8619 27.4181 25.957 27.3296L26.8301 26.4404C27.1314 26.212 27.5674 26.1013 27.8892 26.2881H27.9038L30.8642 28.0357C31.2988 28.308 31.3438 28.8345 31.0327 29.1548L28.9937 31.1777C28.6925 31.4865 28.2925 31.5904 27.9038 31.5908C26.1849 31.5393 24.5607 30.6956 23.2266 29.8286C21.0368 28.2356 19.0281 26.2597 17.7671 23.8726C17.2835 22.8716 16.7153 21.5944 16.7695 20.4771C16.7744 20.0568 16.8881 19.645 17.1841 19.3741L19.2232 17.335C19.382 17.1998 19.5391 17.1328 19.6875 17.124Z" fill="#D4AF37"/>
</g>
<defs>
<clipPath id="clip0">
<rect width="24" height="24" fill="white" transform="translate(12 12.3574)"/>
</clipPath>
</defs>
</svg>
