<svg width="48" height="49" viewBox="0 0 48 49" fill="none" xmlns="http://www.w3.org/2000/svg">
<circle cx="24" cy="24.3574" r="24" fill="#FEF4E8"/>
<g clip-path="url(#clip0)">
<path d="M32 16.3574H16C14.9 16.3574 14.01 17.2574 14.01 18.3574L14 30.3574C14 31.4574 14.9 32.3574 16 32.3574H32C33.1 32.3574 34 31.4574 34 30.3574V18.3574C34 17.2574 33.1 16.3574 32 16.3574ZM31.6 20.6074L24.53 25.0274C24.21 25.2274 23.79 25.2274 23.47 25.0274L16.4 20.6074C16.2997 20.5511 16.2119 20.4751 16.1419 20.3839C16.0719 20.2927 16.0211 20.1882 15.9926 20.0768C15.9641 19.9654 15.9585 19.8494 15.9762 19.7357C15.9938 19.6221 16.0343 19.5132 16.0953 19.4157C16.1562 19.3182 16.2363 19.2341 16.3307 19.1684C16.4251 19.1028 16.5319 19.0569 16.6445 19.0337C16.7571 19.0105 16.8733 19.0104 16.986 19.0334C17.0986 19.0564 17.2055 19.102 17.3 19.1674L24 23.3574L30.7 19.1674C30.7945 19.102 30.9014 19.0564 31.014 19.0334C31.1267 19.0104 31.2429 19.0105 31.3555 19.0337C31.4681 19.0569 31.5749 19.1028 31.6693 19.1684C31.7637 19.2341 31.8438 19.3182 31.9047 19.4157C31.9657 19.5132 32.0062 19.6221 32.0238 19.7357C32.0415 19.8494 32.0359 19.9654 32.0074 20.0768C31.9789 20.1882 31.9281 20.2927 31.8581 20.3839C31.7881 20.4751 31.7003 20.5511 31.6 20.6074Z" fill="#D4AF37"/>
</g>
<defs>
<clipPath id="clip0">
<rect width="24" height="24" fill="white" transform="translate(12 12.3574)"/>
</clipPath>
</defs>
</svg>
