<svg width="48" height="49" viewBox="0 0 48 49" fill="none" xmlns="http://www.w3.org/2000/svg">
<circle cx="24" cy="24.3574" r="24" fill="#FEF4E8"/>
<path d="M24 13.8574C21.8128 13.86 19.7158 14.73 18.1692 16.2766C16.6226 17.8233 15.7526 19.9202 15.75 22.1074C15.7474 23.8948 16.3312 25.6338 17.412 27.0574C17.412 27.0574 17.637 27.3537 17.6738 27.3964L24 34.8574L30.3293 27.3927C30.3623 27.3529 30.588 27.0574 30.588 27.0574L30.5888 27.0552C31.669 25.6321 32.2526 23.894 32.25 22.1074C32.2474 19.9202 31.3774 17.8233 29.8308 16.2766C28.2842 14.73 26.1873 13.86 24 13.8574ZM24 25.1074C23.4067 25.1074 22.8266 24.9315 22.3333 24.6018C21.84 24.2722 21.4554 23.8037 21.2284 23.2555C21.0013 22.7073 20.9419 22.1041 21.0577 21.5222C21.1734 20.9402 21.4591 20.4057 21.8787 19.9861C22.2982 19.5665 22.8328 19.2808 23.4147 19.1651C23.9967 19.0493 24.5999 19.1087 25.1481 19.3358C25.6962 19.5628 26.1648 19.9474 26.4944 20.4407C26.8241 20.9341 27 21.5141 27 22.1074C26.999 22.9028 26.6826 23.6653 26.1202 24.2276C25.5578 24.79 24.7954 25.1064 24 25.1074Z" fill="#D4AF37"/>
</svg>
